<svg id="visual" viewBox="0 0 960 540" width="960" height="540" xmlns="http://www.w3.org/2000/svg" xmlns:xlink="http://www.w3.org/1999/xlink" version="1.1"><rect x="0" y="0" width="960" height="540" fill="#122b3e"></rect><path d="M0 421L12.3 421.5C24.7 422 49.3 423 74 420.8C98.7 418.7 123.3 413.3 148 415.7C172.7 418 197.3 428 221.8 428.7C246.3 429.3 270.7 420.7 295.2 420.8C319.7 421 344.3 430 369 431.8C393.7 433.7 418.3 428.3 443 422.7C467.7 417 492.3 411 517 412C541.7 413 566.3 421 591 422.7C615.7 424.3 640.3 419.7 664.8 419.8C689.3 420 713.7 425 738.2 426.5C762.7 428 787.3 426 812 428.2C836.7 430.3 861.3 436.7 886 438.8C910.7 441 935.3 439 947.7 438L960 437L960 541L947.7 541C935.3 541 910.7 541 886 541C861.3 541 836.7 541 812 541C787.3 541 762.7 541 738.2 541C713.7 541 689.3 541 664.8 541C640.3 541 615.7 541 591 541C566.3 541 541.7 541 517 541C492.3 541 467.7 541 443 541C418.3 541 393.7 541 369 541C344.3 541 319.7 541 295.2 541C270.7 541 246.3 541 221.8 541C197.3 541 172.7 541 148 541C123.3 541 98.7 541 74 541C49.3 541 24.7 541 12.3 541L0 541Z" fill="#0c1452"></path><path d="M0 444L12.3 446C24.7 448 49.3 452 74 452.5C98.7 453 123.3 450 148 450.7C172.7 451.3 197.3 455.7 221.8 453.2C246.3 450.7 270.7 441.3 295.2 442C319.7 442.7 344.3 453.3 369 458.7C393.7 464 418.3 464 443 463.3C467.7 462.7 492.3 461.3 517 458.2C541.7 455 566.3 450 591 452C615.7 454 640.3 463 664.8 466.8C689.3 470.7 713.7 469.3 738.2 464.7C762.7 460 787.3 452 812 449.3C836.7 446.7 861.3 449.3 886 447.2C910.7 445 935.3 438 947.7 434.5L960 431L960 541L947.7 541C935.3 541 910.7 541 886 541C861.3 541 836.7 541 812 541C787.3 541 762.7 541 738.2 541C713.7 541 689.3 541 664.8 541C640.3 541 615.7 541 591 541C566.3 541 541.7 541 517 541C492.3 541 467.7 541 443 541C418.3 541 393.7 541 369 541C344.3 541 319.7 541 295.2 541C270.7 541 246.3 541 221.8 541C197.3 541 172.7 541 148 541C123.3 541 98.7 541 74 541C49.3 541 24.7 541 12.3 541L0 541Z" fill="#1e1e64"></path><path d="M0 482L12.3 481C24.7 480 49.3 478 74 479.8C98.7 481.7 123.3 487.3 148 485.7C172.7 484 197.3 475 221.8 471.3C246.3 467.7 270.7 469.3 295.2 470.8C319.7 472.3 344.3 473.7 369 474.7C393.7 475.7 418.3 476.3 443 477C467.7 477.7 492.3 478.3 517 481.8C541.7 485.3 566.3 491.7 591 492.8C615.7 494 640.3 490 664.8 488.8C689.3 487.7 713.7 489.3 738.2 486.5C762.7 483.7 787.3 476.3 812 475C836.7 473.7 861.3 478.3 886 478.3C910.7 478.3 935.3 473.7 947.7 471.3L960 469L960 541L947.7 541C935.3 541 910.7 541 886 541C861.3 541 836.7 541 812 541C787.3 541 762.7 541 738.2 541C713.7 541 689.3 541 664.8 541C640.3 541 615.7 541 591 541C566.3 541 541.7 541 517 541C492.3 541 467.7 541 443 541C418.3 541 393.7 541 369 541C344.3 541 319.7 541 295.2 541C270.7 541 246.3 541 221.8 541C197.3 541 172.7 541 148 541C123.3 541 98.7 541 74 541C49.3 541 24.7 541 12.3 541L0 541Z" fill="#2e2876"></path><path d="M0 505L12.3 505.8C24.7 506.7 49.3 508.3 74 507.3C98.7 506.3 123.3 502.7 148 503C172.7 503.3 197.3 507.7 221.8 506.5C246.3 505.3 270.7 498.7 295.2 499.7C319.7 500.7 344.3 509.3 369 514.5C393.7 519.7 418.3 521.3 443 521.5C467.7 521.7 492.3 520.3 517 515.5C541.7 510.7 566.3 502.3 591 501C615.7 499.7 640.3 505.3 664.8 506.5C689.3 507.7 713.7 504.3 738.2 504.5C762.7 504.7 787.3 508.3 812 506.7C836.7 505 861.3 498 886 497.3C910.7 496.7 935.3 502.3 947.7 505.2L960 508L960 541L947.7 541C935.3 541 910.7 541 886 541C861.3 541 836.7 541 812 541C787.3 541 762.7 541 738.2 541C713.7 541 689.3 541 664.8 541C640.3 541 615.7 541 591 541C566.3 541 541.7 541 517 541C492.3 541 467.7 541 443 541C418.3 541 393.7 541 369 541C344.3 541 319.7 541 295.2 541C270.7 541 246.3 541 221.8 541C197.3 541 172.7 541 148 541C123.3 541 98.7 541 74 541C49.3 541 24.7 541 12.3 541L0 541Z" fill="#3e3289"></path></svg>